<svg xmlns="http://www.w3.org/2000/svg" viewBox="0 0 1536 768"><path d="M 236,431 Z" fill="black"/><path d="M 188,442 188,444 187,445 187,447 186,448 186,451 185,452 185,455 184,456 184,470 186,472 186,477 187,478 187,480 188,481 189,484 190,485 193,485 198,488 199,487 200,488 203,488 204,489 208,489 209,490 214,490 215,489 216,490 227,490 228,489 233,489 234,488 236,488 237,487 240,487 241,486 243,486 244,485 246,485 247,484 248,484 249,483 254,481 256,479 257,479 259,477 260,477 264,473 265,473 265,472 268,469 268,468 272,461 272,451 271,450 270,447 268,445 268,444 267,443 266,443 264,441 262,441 261,440 250,440 249,441 247,441 242,444 242,445 243,444 255,444 256,445 257,445 259,447 260,447 263,450 263,451 264,452 264,455 265,456 265,460 264,461 264,464 260,470 259,469 259,467 260,466 259,463 258,462 257,463 256,463 252,459 255,456 252,453 250,453 249,452 245,452 244,451 242,451 241,452 237,452 236,453 234,453 231,455 228,455 227,454 227,451 228,450 228,448 229,447 229,445 231,443 231,434 229,431 229,429 224,424 223,424 222,423 219,423 218,422 210,422 207,424 205,424 205,425 204,426 199,428 194,433 194,434 193,435 192,435 192,436 190,438 190,440 Z" fill="black"/><path d="M 1164,405 Z" fill="black"/><path d="M 515,392 501,392 500,393 501,393 504,396 504,397 505,398 505,402 504,403 504,406 502,409 502,411 501,412 501,413 499,416 499,418 496,423 496,425 492,432 492,434 490,436 488,434 488,433 487,432 487,430 486,429 486,428 485,427 485,426 481,419 481,417 480,416 480,415 476,408 476,406 473,401 473,397 474,396 474,395 476,393 477,393 476,392 475,392 474,393 473,392 461,392 460,393 458,393 457,392 456,393 457,394 458,394 462,399 462,400 466,407 466,409 468,412 468,414 469,415 469,416 473,423 473,425 475,428 475,430 477,432 477,434 480,439 480,441 482,444 482,446 484,449 484,452 481,457 481,459 479,462 479,464 477,466 477,467 473,471 468,471 467,470 466,470 464,468 459,468 456,470 456,475 457,476 457,477 458,477 460,479 468,479 469,478 472,477 477,472 477,471 481,466 481,464 482,463 482,461 486,454 486,452 488,449 488,447 489,446 489,445 491,442 491,440 495,433 495,431 498,426 498,424 500,421 500,419 501,418 501,417 505,410 505,408 508,403 508,401 510,399 510,398 515,393 Z" fill="black"/><path d="M 1047,420 1047,429 1052,434 1063,431 1075,419 1077,428 1081,431 1090,430 1105,421 1103,432 1107,433 1127,406 1136,397 1144,393 1144,400 1133,424 1134,427 1137,427 1152,410 1164,402 1166,406 1163,425 1166,429 1173,430 1188,423 1175,449 1135,449 1100,456 1067,470 1050,485 1067,474 1087,465 1115,457 1138,454 1172,454 1166,471 1167,477 1171,475 1180,454 1275,465 1319,465 1183,449 1194,426 1214,405 1218,403 1226,405 1222,417 1212,426 1196,429 1195,432 1204,434 1217,429 1230,414 1230,402 1224,398 1218,399 1204,408 1207,398 1205,394 1201,397 1197,407 1191,414 1172,426 1167,423 1171,401 1168,398 1160,399 1146,410 1150,398 1150,392 1146,388 1138,391 1135,389 1126,396 1120,396 1107,414 1088,427 1081,425 1083,413 1088,405 1085,401 1060,428 1056,430 1052,428 1054,416 1061,404 1060,401 1054,404 Z" fill="black"/><path d="M 915,379 898,379 898,380 902,384 902,386 903,387 903,390 902,391 902,395 900,398 900,400 898,403 898,405 893,414 892,419 889,424 889,426 884,436 882,435 880,431 880,429 877,424 877,422 873,416 873,414 869,407 869,405 867,402 867,400 863,394 863,392 861,389 861,383 864,380 864,379 840,379 840,380 841,380 847,386 847,387 849,389 850,391 850,393 857,407 857,409 859,411 861,415 861,417 865,424 865,426 867,429 867,431 869,433 869,435 872,440 872,442 877,452 874,458 874,460 867,472 866,472 862,475 860,474 858,474 855,472 849,472 847,474 847,479 850,482 853,482 854,483 861,482 863,481 869,475 869,474 871,472 879,456 879,454 882,449 883,444 888,435 888,433 890,430 890,428 894,421 895,416 897,414 898,412 898,410 901,405 901,403 905,396 905,394 907,391 907,389 909,387 911,383 913,382 915,380 Z" fill="black"/><path d="M 678,382 674,386 674,387 673,388 673,390 672,391 672,397 675,400 677,400 678,401 679,401 680,400 682,400 684,398 685,398 685,396 686,395 686,388 685,387 685,386 688,381 689,381 694,378 707,378 708,379 711,380 717,386 717,388 718,389 718,401 717,402 717,403 714,406 713,406 710,408 708,408 707,409 704,409 703,410 700,410 699,411 695,411 694,412 691,412 690,413 688,413 687,414 685,414 684,415 679,416 678,417 677,417 674,420 673,420 673,421 670,424 670,425 668,428 668,430 667,431 667,439 668,440 668,442 669,443 670,446 673,449 674,449 676,451 677,451 680,453 684,453 685,454 697,454 698,453 702,453 703,452 705,452 706,451 711,449 717,443 718,444 718,446 719,447 720,450 724,453 727,453 728,454 732,454 733,453 735,453 739,449 740,446 739,446 738,447 738,448 735,450 734,450 731,446 731,395 730,394 730,392 729,391 729,389 728,388 727,385 723,381 722,381 717,377 714,377 713,376 707,376 706,375 699,375 698,376 692,376 691,377 688,377 687,378 685,378 684,379 681,380 679,382 Z" fill="black"/><path d="M 497,363 494,366 494,373 495,374 495,376 496,377 496,378 501,383 502,383 506,387 508,387 512,383 513,383 519,377 519,376 520,375 520,373 521,372 521,371 520,370 520,368 519,367 519,366 518,366 517,365 513,365 512,366 511,366 509,368 507,368 506,367 506,366 504,364 503,364 502,363 Z" fill="black"/><path d="M 994,358 992,358 991,359 991,360 989,362 989,363 988,364 988,365 987,366 987,367 986,368 986,369 985,370 985,371 984,372 984,373 983,374 983,375 982,376 982,378 981,379 981,381 980,382 980,383 979,384 979,385 978,386 978,387 977,388 977,390 976,391 976,392 975,393 975,395 974,396 974,397 973,398 973,400 972,401 972,403 971,404 971,406 970,407 970,409 969,410 969,412 968,413 968,415 967,416 967,419 966,420 966,423 965,424 965,425 964,426 964,430 963,431 963,434 962,435 962,440 961,441 961,446 960,447 960,452 962,454 963,453 963,452 964,451 964,446 965,445 965,442 966,441 966,437 967,436 967,432 968,431 968,430 969,429 969,427 970,426 970,423 971,422 971,420 972,419 972,417 973,416 973,413 974,412 974,411 975,410 975,408 976,407 976,405 977,404 977,403 978,402 978,399 979,398 979,397 980,396 980,395 981,394 981,392 982,391 982,390 983,389 983,388 984,387 984,385 985,384 985,383 986,382 986,380 987,379 987,378 988,377 988,376 989,375 989,374 990,373 990,372 991,371 991,370 992,369 992,368 994,366 994,364 995,363 995,359 Z" fill="black"/><path d="M 1329,361 1326,358 1322,358 1321,359 1320,359 1319,360 1318,360 1316,358 1316,357 1315,356 1315,355 1314,354 1313,354 1312,353 1310,353 1309,354 1307,354 1305,356 1305,357 1304,358 1304,366 1305,367 1305,375 1304,376 1304,379 1305,379 1306,378 1308,378 1309,377 1314,377 1315,376 1317,376 1318,375 1320,375 1321,374 1322,374 1325,371 1326,371 1327,370 1327,369 1328,368 1328,367 1329,366 Z" fill="black"/><path d="M 343,347 348,352 350,356 350,439 348,445 342,450 343,451 344,450 359,450 355,447 352,441 352,359 353,358 391,427 393,426 426,362 429,360 430,361 430,440 427,447 422,450 423,451 424,450 448,450 442,445 441,442 441,355 447,347 432,347 397,414 395,413 389,403 389,401 370,367 360,347 Z" fill="black"/><path d="M 570,343 570,344 571,345 572,345 575,348 575,349 576,350 576,353 577,354 577,442 576,443 576,447 571,452 570,452 570,453 625,453 626,452 629,452 630,451 633,451 636,449 638,449 640,447 641,447 643,445 644,445 649,440 649,439 652,434 652,432 654,429 654,418 653,417 652,412 651,411 650,408 644,402 643,402 638,398 636,398 635,397 633,397 632,396 629,396 628,395 621,395 620,394 623,392 628,391 632,388 633,388 638,383 638,382 640,380 640,379 642,376 642,373 643,372 643,364 642,363 642,360 641,359 640,356 638,354 638,353 637,352 636,352 633,349 632,349 627,346 622,345 621,344 605,344 604,343 586,343 585,344 581,344 580,343 Z" fill="black"/><path d="M 1447,336 1446,337 1446,341 1445,342 1445,345 1444,346 1444,347 1443,348 1443,349 1441,351 1440,351 1438,353 1437,353 1436,354 1434,354 1433,355 1428,355 1428,356 1431,356 1432,357 1435,357 1436,358 1437,358 1438,359 1439,359 1444,364 1444,366 1445,367 1445,370 1446,371 1446,375 1447,375 1447,370 1448,369 1448,367 1449,366 1449,365 1450,364 1450,363 1451,362 1451,361 1452,360 1453,360 1455,358 1457,358 1458,357 1460,357 1461,356 1465,356 1464,355 1460,355 1459,354 1457,354 1456,353 1455,353 1454,352 1453,352 1450,349 1450,348 1449,347 1449,346 1448,345 1448,342 1447,341 Z" fill="black"/><path d="M 1029,341 1017,336 1008,335 1007,334 996,334 995,335 984,336 980,338 971,340 967,343 965,343 958,347 950,353 939,365 937,370 934,374 932,380 932,392 934,396 937,395 935,390 936,381 940,372 946,364 957,354 973,345 985,341 990,341 991,340 1009,340 1010,341 1014,341 1026,346 1036,355 1037,358 1039,360 1041,366 1041,373 1042,374 1040,390 1035,401 1035,403 1032,409 1019,427 1017,428 1017,429 1000,446 985,457 977,461 972,465 970,465 958,471 952,473 947,472 945,473 945,477 947,478 953,478 954,477 964,475 971,472 973,470 990,461 1010,445 1014,440 1021,434 1034,417 1039,406 1041,404 1042,399 1045,393 1046,385 1047,384 1047,366 1045,360 1040,351 Z" fill="black"/><path d="M 1239,411 1240,427 1244,432 1250,434 1264,429 1276,419 1276,425 1279,430 1290,431 1304,423 1316,413 1318,416 1312,430 1317,431 1342,407 1352,402 1355,403 1355,408 1352,414 1351,423 1354,428 1360,430 1365,429 1380,420 1383,428 1393,428 1413,411 1414,413 1409,430 1380,448 1362,468 1358,476 1357,487 1359,491 1365,495 1377,494 1385,489 1391,482 1405,458 1415,432 1436,424 1447,423 1450,425 1452,423 1449,420 1436,420 1417,426 1417,419 1421,404 1415,396 1408,394 1397,398 1383,413 1369,423 1359,425 1356,420 1360,408 1360,400 1356,397 1342,402 1328,414 1325,414 1335,398 1335,395 1332,394 1303,419 1286,428 1282,425 1282,419 1293,401 1293,397 1289,396 1281,409 1272,418 1257,428 1248,429 1244,423 1246,408 1292,351 1297,339 1294,331 1288,331 1281,335 1266,352 1250,379 Z" fill="black"/><path d="M 772,330 770,332 769,332 760,337 757,337 756,338 756,339 757,339 758,340 758,341 759,341 760,342 760,345 761,346 761,348 762,349 762,399 761,400 761,407 762,408 762,422 761,423 761,431 762,432 762,441 761,442 761,444 762,445 762,447 761,448 761,450 762,451 761,452 761,453 763,453 771,447 773,447 774,446 777,447 779,449 780,449 783,451 785,451 786,452 788,452 789,453 805,453 806,452 809,452 810,451 815,449 817,447 818,447 824,441 824,440 828,435 828,433 830,430 830,427 831,426 831,422 832,421 832,407 831,406 831,402 830,401 830,398 829,397 827,392 825,390 825,389 819,383 818,383 816,381 815,381 812,379 810,379 809,378 806,378 805,377 795,377 794,378 792,378 791,379 786,380 785,381 782,382 777,387 777,388 774,392 773,391 773,330 Z" fill="black"/><path d="M 693,333 693,335 692,336 692,343 693,344 693,346 694,347 694,348 696,350 696,351 699,354 699,355 704,360 706,360 707,359 708,359 709,358 710,358 711,357 712,357 713,356 714,356 716,354 717,354 724,347 724,345 725,344 725,341 724,340 724,339 723,338 723,337 722,337 721,336 720,336 719,335 715,335 714,336 713,336 712,337 711,337 710,338 709,338 708,337 708,335 706,333 706,332 705,332 704,331 703,331 702,330 697,330 696,331 695,331 Z" fill="black"/><path d="M 240,312 225,312 211,318 201,326 190,340 184,352 178,373 177,397 179,408 181,408 181,389 185,368 197,342 212,326 223,321 233,321 239,324 244,332 244,350 233,372 208,396 224,391 244,390 256,393 269,400 278,409 285,421 288,431 288,450 280,471 263,490 250,498 233,503 210,502 197,497 183,483 177,464 181,444 188,433 199,423 213,417 225,417 231,420 238,430 236,447 244,435 244,422 237,413 223,407 198,409 188,413 175,422 165,435 160,449 160,464 163,473 169,483 186,497 215,507 230,508 250,506 279,494 289,486 306,464 312,444 312,429 309,418 301,404 290,394 278,388 261,384 228,387 250,369 257,358 261,346 259,327 251,317 Z" fill="black"/><path d="M 216,268 191,268 190,269 178,270 160,275 145,282 140,286 138,286 123,298 105,319 94,338 85,365 85,370 83,377 83,405 84,406 85,417 93,441 100,452 100,454 113,471 130,486 151,498 174,505 177,505 176,504 168,502 160,498 141,485 126,469 115,451 107,431 103,413 102,386 103,385 104,373 109,354 122,327 133,312 147,298 159,289 161,289 168,284 193,275 204,274 205,273 233,273 240,275 238,273 Z" fill="black"/></svg>