<svg xmlns="http://www.w3.org/2000/svg" viewBox="0 0 200 200" width="200" height="200">
  <defs>
    <linearGradient id="pyg" x1="0%" y1="0%" x2="100%" y2="100%">
      <stop offset="0%" stop-color="#E5571A"/>
      <stop offset="100%" stop-color="#F5A623"/>
    </linearGradient>
  </defs>
  <circle cx="100" cy="100" r="100" fill="#0D0D0D"/>
  <circle cx="100" cy="100" r="88" fill="none" stroke="#E5571A" stroke-width="1" opacity="0.2"/>
  <!-- Network hexagon nodes -->
  <circle cx="100" cy="58" r="7" fill="url(#pyg)" opacity="0.9"/>
  <circle cx="138" cy="79" r="5.5" fill="url(#pyg)" opacity="0.75"/>
  <circle cx="138" cy="121" r="5.5" fill="url(#pyg)" opacity="0.75"/>
  <circle cx="100" cy="142" r="7" fill="url(#pyg)" opacity="0.9"/>
  <circle cx="62" cy="121" r="5.5" fill="url(#pyg)" opacity="0.75"/>
  <circle cx="62" cy="79" r="5.5" fill="url(#pyg)" opacity="0.75"/>
  <!-- Hub center -->
  <circle cx="100" cy="100" r="10" fill="url(#pyg)"/>
  <circle cx="100" cy="100" r="5" fill="#0D0D0D"/>
  <!-- Outer ring connections -->
  <line x1="100" y1="58" x2="138" y2="79" stroke="#F5A623" stroke-width="1.5" opacity="0.4"/>
  <line x1="138" y1="79" x2="138" y2="121" stroke="#F5A623" stroke-width="1.5" opacity="0.4"/>
  <line x1="138" y1="121" x2="100" y2="142" stroke="#F5A623" stroke-width="1.5" opacity="0.4"/>
  <line x1="100" y1="142" x2="62" y2="121" stroke="#F5A623" stroke-width="1.5" opacity="0.4"/>
  <line x1="62" y1="121" x2="62" y2="79" stroke="#F5A623" stroke-width="1.5" opacity="0.4"/>
  <line x1="62" y1="79" x2="100" y2="58" stroke="#F5A623" stroke-width="1.5" opacity="0.4"/>
  <!-- Spoke lines to center -->
  <line x1="100" y1="100" x2="100" y2="58" stroke="#E5571A" stroke-width="1" opacity="0.35"/>
  <line x1="100" y1="100" x2="138" y2="79" stroke="#E5571A" stroke-width="1" opacity="0.35"/>
  <line x1="100" y1="100" x2="138" y2="121" stroke="#E5571A" stroke-width="1" opacity="0.35"/>
  <line x1="100" y1="100" x2="100" y2="142" stroke="#E5571A" stroke-width="1" opacity="0.35"/>
  <line x1="100" y1="100" x2="62" y2="121" stroke="#E5571A" stroke-width="1" opacity="0.35"/>
  <line x1="100" y1="100" x2="62" y2="79" stroke="#E5571A" stroke-width="1" opacity="0.35"/>
  <!-- Wordmark -->
  <text x="100" y="168" text-anchor="middle" font-family="Arial,sans-serif" font-size="10.5" font-weight="800" fill="#F5A623" letter-spacing="2">D' PANYARD</text>
</svg>