<svg xmlns="http://www.w3.org/2000/svg" viewBox="0 0 200 200">
  <defs><linearGradient id="g" x1="0" y1="0" x2="1" y2="1"><stop offset="0%" stop-color="#C0392B"/><stop offset="100%" stop-color="#E87060"/></linearGradient></defs>
  <circle cx="100" cy="100" r="100" fill="#0D0505"/>
  <circle cx="100" cy="100" r="88" fill="none" stroke="url(#g)" stroke-width="1.5" opacity="0.3"/>
  <!-- Sneaker silhouette -->
  <path d="M38 118 Q40 90 65 82 Q85 76 100 80 Q120 76 140 82 L158 100 Q165 112 158 122 Q148 130 120 132 L60 132 Q42 130 38 118Z" fill="url(#g)" opacity="0.15" stroke="url(#g)" stroke-width="2"/>
  <!-- Sole treads -->
  <path d="M55 118 H80 M90 118 H115 M125 118 H148" stroke="url(#g)" stroke-width="3" stroke-linecap="round"/>
  <path d="M48 108 H70 M82 108 H105 M118 108 H142" stroke="url(#g)" stroke-width="2.5" stroke-linecap="round" opacity="0.7"/>
  <!-- SP monogram -->
  <text x="100" y="97" text-anchor="middle" font-family="Georgia,serif" font-size="22" font-weight="700" fill="url(#g)">SP</text>
</svg>