<svg xmlns="http://www.w3.org/2000/svg" viewBox="0 0 200 200">
  <defs><linearGradient id="g" x1="0" y1="0" x2="1" y2="1"><stop offset="0%" stop-color="#7B35D4"/><stop offset="100%" stop-color="#B06AFF"/></linearGradient></defs>
  <circle cx="100" cy="100" r="100" fill="#0A0618"/>
  <circle cx="100" cy="100" r="88" fill="none" stroke="url(#g)" stroke-width="1.5" opacity="0.3"/>
  <!-- Circuit lines -->
  <path d="M50 80 H75 M75 80 V60 H95 M125 80 H155 M155 80 V60 H135" stroke="url(#g)" stroke-width="2" fill="none" opacity="0.4"/>
  <path d="M50 120 H75 M75 120 V140 H95 M125 120 H155 M155 120 V140 H135" stroke="url(#g)" stroke-width="2" fill="none" opacity="0.4"/>
  <!-- Magnifier -->
  <circle cx="93" cy="93" r="28" fill="none" stroke="url(#g)" stroke-width="4"/>
  <circle cx="93" cy="93" r="18" fill="#7B35D415"/>
  <line x1="113" y1="113" x2="135" y2="135" stroke="url(#g)" stroke-width="5" stroke-linecap="round"/>
  <!-- Nodes -->
  <circle cx="50" cy="80" r="4" fill="#7B35D4"/>
  <circle cx="155" cy="80" r="4" fill="#B06AFF"/>
  <circle cx="50" cy="120" r="4" fill="#7B35D4"/>
  <circle cx="155" cy="120" r="4" fill="#B06AFF"/>
</svg>